<svg version="1.1" id="Layer_1" xmlns="http://www.w3.org/2000/svg" xmlns:xlink="http://www.w3.org/1999/xlink" x="0px" y="0px"
	 width="100%" viewBox="0 0 257 216" enable-background="new 0 0 257 216" xml:space="preserve">
<path fill="#000000" opacity="1.000000" stroke="none" 
	d="
M117.000000,1.000001 
	C163.971176,1.000000 210.942368,1.000000 257.956787,1.000000 
	C257.956787,72.927010 257.956787,144.854050 257.956787,216.890549 
	C172.333405,216.890549 86.666725,216.890549 1.000023,216.883667 
	C1.000000,183.896957 1.000000,150.917145 1.366522,117.331955 
	C4.333244,117.712234 6.863012,119.163841 9.550786,119.570099 
	C13.228187,120.125931 14.854022,122.154922 16.096445,125.364304 
	C18.412012,131.345840 20.930502,137.261658 23.662159,143.064713 
	C25.456854,146.877319 25.483753,150.152130 22.976952,153.710617 
	C19.618404,158.478149 20.130148,162.402725 24.217854,166.598801 
	C27.693588,170.166672 31.239359,173.666779 34.778568,177.172211 
	C39.637444,181.984726 43.207069,182.532166 48.682178,178.438004 
	C51.981838,175.970627 54.778152,175.522507 58.054031,178.346710 
	C58.422264,178.758041 58.719063,178.919159 59.012798,179.035858 
	C59.009735,178.991425 58.920868,178.997406 59.040581,179.318573 
	C63.216244,183.877045 67.101318,188.604523 74.335861,184.862930 
	C80.417221,185.860413 82.567543,189.650238 83.037476,194.994415 
	C83.426819,199.422150 86.020172,201.831055 90.481232,201.935303 
	C93.965874,202.016739 97.455902,201.867661 101.393639,201.875351 
	C104.553185,201.987976 107.262634,202.046249 110.108543,202.421234 
	C112.785965,206.282104 116.178917,207.347137 120.518219,207.095840 
	C126.314377,206.760178 132.148468,207.079620 138.131927,207.418900 
	C140.736908,211.092880 143.885330,212.380783 148.157959,212.096771 
	C153.960815,211.711060 159.808655,212.028503 165.636841,211.989960 
	C170.906418,211.955124 173.403488,209.706589 174.001938,204.411316 
	C174.510513,199.911392 176.573776,196.735275 180.973206,195.089371 
	C186.985397,192.840073 193.136154,190.806656 198.820724,187.888321 
	C202.872330,185.808304 205.932938,186.362000 209.255280,188.793091 
	C213.664780,192.019714 217.354309,191.916473 221.172195,188.273087 
	C225.266953,184.365479 229.266449,180.351929 233.182053,176.264420 
	C236.946609,172.334595 237.148666,167.829834 233.875580,163.351898 
	C231.572433,160.200897 231.515121,157.053055 233.154694,153.562363 
	C235.680374,148.185074 238.390106,142.834885 240.233917,137.214737 
	C241.813766,132.399155 244.435806,129.572784 249.441376,129.058792 
	C254.428864,128.546661 256.109314,125.537079 256.027893,120.872154 
	C255.914612,114.379585 256.025696,107.883423 255.991394,101.389061 
	C255.965530,96.496094 253.521439,93.379326 248.774017,93.109177 
	C244.182587,92.847908 242.157974,90.295486 240.671158,86.421181 
	C238.367371,80.418076 235.803131,74.512833 233.262054,68.603622 
	C231.663742,64.886795 231.199173,61.625168 234.181839,58.057339 
	C236.996918,54.689953 237.673737,50.461575 234.278137,46.857620 
	C229.598358,41.890678 224.716522,37.109097 219.813202,32.359650 
	C216.785965,29.427406 213.541443,29.480303 209.852493,31.592478 
	C206.960571,33.248295 203.634842,34.146488 200.587524,35.259018 
	C200.673187,35.136765 200.927597,35.293015 200.815674,34.955898 
	C200.037231,34.468712 199.370743,34.318642 198.418442,34.007175 
	C196.431702,32.067863 194.674225,30.340118 193.041977,28.501221 
	C189.982727,25.054665 186.484711,23.907907 181.852936,26.092384 
	C176.782684,24.987638 174.654282,21.730433 174.040268,17.272530 
	C173.393677,12.578130 170.542175,10.918240 166.092529,10.973651 
	C159.434113,11.056569 152.773590,10.970566 145.959167,10.626397 
	C144.388809,7.049818 141.866043,5.891202 138.398056,5.955518 
	C131.964600,6.074830 125.526894,5.965480 118.931870,5.646160 
	C118.181847,3.893983 117.590919,2.446992 117.000000,1.000001 
z"/>
<path fill="#476172" opacity="1.000000" stroke="none" 
	d="
M57.982597,178.096527 
	C54.778152,175.522507 51.981838,175.970627 48.682178,178.438004 
	C43.207069,182.532166 39.637444,181.984726 34.778568,177.172211 
	C31.239359,173.666779 27.693588,170.166672 24.217854,166.598801 
	C20.130148,162.402725 19.618404,158.478149 22.976952,153.710617 
	C25.483753,150.152130 25.456854,146.877319 23.662159,143.064713 
	C20.930502,137.261658 18.412012,131.345840 16.096445,125.364304 
	C14.854022,122.154922 13.228187,120.125931 9.550786,119.570099 
	C6.863012,119.163841 4.333244,117.712234 1.366522,116.863297 
	C1.000000,106.979103 1.000000,96.958214 1.357277,86.608871 
	C3.903784,85.210304 6.030574,83.417908 8.295390,83.222107 
	C12.852680,82.828125 14.886925,80.326477 16.375015,76.454788 
	C18.739452,70.303055 21.406313,64.267220 23.962688,58.189697 
	C25.459753,54.630577 25.865759,51.394093 22.888996,48.119453 
	C20.172760,45.131413 18.982695,41.281391 21.916519,37.828987 
	C26.310282,32.658596 30.888584,27.589333 35.851158,22.974712 
	C40.236210,18.897121 43.559528,19.093811 48.197548,22.797319 
	C51.093945,25.110123 53.906868,25.538452 57.360909,23.957485 
	C63.650322,21.078726 70.159096,18.675064 76.417435,15.734909 
	C78.502403,14.755389 80.763519,13.080909 81.770065,11.121138 
	C83.365852,8.014057 83.973991,4.399720 85.000000,0.999999 
	C90.022095,1.000000 95.044182,1.000000 100.532707,1.468657 
	C101.029907,14.537035 101.060677,27.136757 100.628220,39.691162 
	C67.192245,40.622410 40.953724,65.628105 39.238632,97.791161 
	C37.361736,132.988510 65.306602,163.172607 101.036774,163.556824 
	C100.998657,176.619980 100.971100,189.220474 100.943542,201.820984 
	C97.455902,201.867661 93.965874,202.016739 90.481232,201.935303 
	C86.020172,201.831055 83.426819,199.422150 83.037476,194.994415 
	C82.567543,189.650238 80.417221,185.860413 74.114807,184.599243 
	C68.652885,182.513962 63.786873,180.755692 58.920868,178.997406 
	C58.920868,178.997406 59.009735,178.991425 59.062828,178.729004 
	C58.738144,178.343231 58.360371,178.219879 57.982597,178.096527 
z"/>
<path fill="#364A58" opacity="1.000000" stroke="none" 
	d="
M101.393639,201.875336 
	C100.971100,189.220474 100.998657,176.619980 100.991341,163.517303 
	C100.956467,163.015137 100.938454,162.896027 101.385803,162.931946 
	C136.018066,162.096680 163.483047,134.322952 162.768982,100.929230 
	C161.915421,61.012093 127.999359,38.215542 101.024429,39.918434 
	C101.034637,39.853981 101.091438,39.736477 101.091438,39.736477 
	C101.060677,27.136757 101.029907,14.537035 100.999573,1.468657 
	C106.022095,1.000000 111.044182,1.000000 116.533134,1.000001 
	C117.590919,2.446992 118.181847,3.893983 118.859734,6.047109 
	C118.775696,11.934554 121.191368,14.935404 126.166946,16.640812 
	C132.100494,18.674568 137.865219,21.250458 143.575562,23.869526 
	C147.816589,25.814686 151.522842,25.950785 155.152740,22.021414 
	C159.683456,19.965826 163.233810,21.043179 166.320847,24.123974 
	C168.295181,26.094301 170.183350,28.150974 172.285217,30.438850 
	C173.815018,31.929314 175.229233,33.090622 176.514252,34.380627 
	C182.246811,40.135365 182.483459,42.060047 177.841415,48.911526 
	C175.539001,52.309818 176.312134,55.375835 177.837601,58.756710 
	C180.362122,64.351799 182.918991,69.972862 184.832733,75.790077 
	C186.356979,80.423439 188.690231,83.300377 193.762146,83.752007 
	C198.804611,84.201012 200.949524,87.433128 200.981308,92.248245 
	C201.021957,98.407532 201.081497,104.569107 200.960449,110.726303 
	C200.860931,115.787491 198.573151,118.421494 193.474945,118.931290 
	C189.062561,119.372490 186.672318,121.624207 185.182266,125.645950 
	C182.992096,131.557373 180.682404,137.450912 177.960159,143.129913 
	C176.010269,147.197617 175.876755,150.615616 178.889465,154.153641 
	C182.141342,157.972519 181.622604,161.818390 178.246567,165.300797 
	C174.307297,169.364166 170.320419,173.385040 166.251648,177.318268 
	C161.776108,181.644699 158.932220,181.879364 153.980042,178.128433 
	C151.013123,175.881195 148.125320,175.423904 144.697876,176.904236 
	C137.994003,179.799652 131.059967,182.213287 124.552841,185.485764 
	C122.236908,186.650467 119.481644,189.652084 119.357155,191.947021 
	C119.007454,198.393692 115.888222,201.292572 109.972084,202.104523 
	C107.262634,202.046249 104.553185,201.987976 101.393639,201.875336 
z"/>
<path fill="#000000" opacity="1.000000" stroke="none" 
	d="
M84.531342,0.999999 
	C83.973991,4.399720 83.365852,8.014057 81.770065,11.121138 
	C80.763519,13.080909 78.502403,14.755389 76.417435,15.734909 
	C70.159096,18.675064 63.650322,21.078726 57.360909,23.957485 
	C53.906868,25.538452 51.093945,25.110123 48.197548,22.797319 
	C43.559528,19.093811 40.236210,18.897121 35.851158,22.974712 
	C30.888584,27.589333 26.310282,32.658596 21.916519,37.828987 
	C18.982695,41.281391 20.172760,45.131413 22.888996,48.119453 
	C25.865759,51.394093 25.459753,54.630577 23.962688,58.189697 
	C21.406313,64.267220 18.739452,70.303055 16.375015,76.454788 
	C14.886925,80.326477 12.852680,82.828125 8.295390,83.222107 
	C6.030574,83.417908 3.903784,85.210304 1.357277,86.140213 
	C1.000000,57.740204 1.000000,29.480404 1.000000,1.000000 
	C28.687170,1.000000 56.374928,1.000000 84.531342,0.999999 
z"/>
<path fill="#298F1B" opacity="1.000000" stroke="none" 
	d="
M200.501846,35.381271 
	C203.634842,34.146488 206.960571,33.248295 209.852493,31.592478 
	C213.541443,29.480303 216.785965,29.427406 219.813202,32.359650 
	C224.716522,37.109097 229.598358,41.890678 234.278137,46.857620 
	C237.673737,50.461575 236.996918,54.689953 234.181839,58.057339 
	C231.199173,61.625168 231.663742,64.886795 233.262054,68.603622 
	C235.803131,74.512833 238.367371,80.418076 240.671158,86.421181 
	C242.157974,90.295486 244.182587,92.847908 248.774017,93.109177 
	C253.521439,93.379326 255.965530,96.496094 255.991394,101.389061 
	C256.025696,107.883423 255.914612,114.379585 256.027893,120.872154 
	C256.109314,125.537079 254.428864,128.546661 249.441376,129.058792 
	C244.435806,129.572784 241.813766,132.399155 240.233917,137.214737 
	C238.390106,142.834885 235.680374,148.185074 233.154694,153.562363 
	C231.515121,157.053055 231.572433,160.200897 233.875580,163.351898 
	C237.148666,167.829834 236.946609,172.334595 233.182053,176.264420 
	C229.266449,180.351929 225.266953,184.365479 221.172195,188.273087 
	C217.354309,191.916473 213.664780,192.019714 209.255280,188.793091 
	C205.932938,186.362000 202.872330,185.808304 198.820724,187.888321 
	C193.136154,190.806656 186.985397,192.840073 180.973206,195.089371 
	C176.573776,196.735275 174.510513,199.911392 174.001938,204.411316 
	C173.403488,209.706589 170.906418,211.955124 165.636841,211.989960 
	C159.808655,212.028503 153.960815,211.711060 148.157959,212.096771 
	C143.885330,212.380783 140.736908,211.092880 138.466110,207.264832 
	C143.512039,205.782898 146.124908,203.045288 146.069534,197.792831 
	C146.027924,193.846405 148.397385,191.494019 152.030502,190.067535 
	C158.510605,187.523239 164.951675,184.866638 171.319275,182.053772 
	C174.892487,180.475342 177.904907,180.722321 181.035706,183.173203 
	C185.756287,186.868622 188.689041,186.696747 192.911499,182.663010 
	C197.003281,178.754089 200.997681,174.737427 204.914139,170.652359 
	C208.958725,166.433640 209.165924,163.508057 205.586441,158.792984 
	C203.068848,155.476700 202.975677,152.388535 204.744919,148.636032 
	C207.499374,142.793945 209.899246,136.769653 212.155930,130.713226 
	C213.643997,126.719635 215.946671,124.366066 220.392456,123.946609 
	C225.705841,123.445297 227.909592,120.790192 227.983139,115.358604 
	C228.062042,109.532516 228.040085,103.704216 227.991379,97.877480 
	C227.940903,91.839348 226.091293,89.520996 219.954224,88.625938 
	C215.758179,88.013962 213.580399,85.707146 212.177841,81.934250 
	C209.927383,75.880455 207.628693,69.822830 204.906281,63.973534 
	C202.946548,59.762951 202.658646,56.210434 205.934814,52.532150 
	C209.250854,48.809105 208.668381,44.972672 205.498215,41.341076 
	C203.793747,39.388519 202.164841,37.370018 200.501846,35.381271 
z"/>
<path fill="#0301FD" opacity="1.000000" stroke="none" 
	d="
M200.587524,35.259018 
	C202.164841,37.370018 203.793747,39.388519 205.498215,41.341076 
	C208.668381,44.972672 209.250854,48.809105 205.934814,52.532150 
	C202.658646,56.210434 202.946548,59.762951 204.906281,63.973534 
	C207.628693,69.822830 209.927383,75.880455 212.177841,81.934250 
	C213.580399,85.707146 215.758179,88.013962 219.954224,88.625938 
	C226.091293,89.520996 227.940903,91.839348 227.991379,97.877480 
	C228.040085,103.704216 228.062042,109.532516 227.983139,115.358604 
	C227.909592,120.790192 225.705841,123.445297 220.392456,123.946609 
	C215.946671,124.366066 213.643997,126.719635 212.155930,130.713226 
	C209.899246,136.769653 207.499374,142.793945 204.744919,148.636032 
	C202.975677,152.388535 203.068848,155.476700 205.586441,158.792984 
	C209.165924,163.508057 208.958725,166.433640 204.914139,170.652359 
	C200.997681,174.737427 197.003281,178.754089 192.911499,182.663010 
	C188.689041,186.696747 185.756287,186.868622 181.035706,183.173203 
	C177.904907,180.722321 174.892487,180.475342 171.319275,182.053772 
	C164.951675,184.866638 158.510605,187.523239 152.030502,190.067535 
	C148.397385,191.494019 146.027924,193.846405 146.069534,197.792831 
	C146.124908,203.045288 143.512039,205.782898 138.300476,206.963654 
	C132.148468,207.079620 126.314377,206.760178 120.518219,207.095840 
	C116.178917,207.347137 112.785965,206.282104 110.108543,202.421234 
	C115.888222,201.292572 119.007454,198.393692 119.357155,191.947021 
	C119.481644,189.652084 122.236908,186.650467 124.552841,185.485764 
	C131.059967,182.213287 137.994003,179.799652 144.697876,176.904236 
	C148.125320,175.423904 151.013123,175.881195 153.980042,178.128433 
	C158.932220,181.879364 161.776108,181.644699 166.251648,177.318268 
	C170.320419,173.385040 174.307297,169.364166 178.246567,165.300797 
	C181.622604,161.818390 182.141342,157.972519 178.889465,154.153641 
	C175.876755,150.615616 176.010269,147.197617 177.960159,143.129913 
	C180.682404,137.450912 182.992096,131.557373 185.182266,125.645950 
	C186.672318,121.624207 189.062561,119.372490 193.474945,118.931290 
	C198.573151,118.421494 200.860931,115.787491 200.960449,110.726303 
	C201.081497,104.569107 201.021957,98.407532 200.981308,92.248245 
	C200.949524,87.433128 198.804611,84.201012 193.762146,83.752007 
	C188.690231,83.300377 186.356979,80.423439 184.832733,75.790077 
	C182.918991,69.972862 180.362122,64.351799 177.837601,58.756710 
	C176.312134,55.375835 175.539001,52.309818 177.841415,48.911526 
	C182.483459,42.060047 182.246811,40.135365 176.514252,34.380627 
	C175.229233,33.090622 173.815018,31.929314 172.706436,30.402534 
	C176.796082,30.569742 180.264175,30.155581 182.223999,26.175175 
	C186.484711,23.907907 189.982727,25.054665 193.041977,28.501221 
	C194.674225,30.340118 196.431702,32.067863 198.608582,34.349876 
	C199.698883,35.000320 200.313248,35.146667 200.927597,35.293015 
	C200.927597,35.293015 200.673187,35.136765 200.587524,35.259018 
z"/>
<path fill="#0402FB" opacity="1.000000" stroke="none" 
	d="
M154.773010,22.176146 
	C151.522842,25.950785 147.816589,25.814686 143.575562,23.869526 
	C137.865219,21.250458 132.100494,18.674568 126.166946,16.640812 
	C121.191368,14.935404 118.775696,11.934554 119.018829,6.352295 
	C125.526894,5.965480 131.964600,6.074830 138.398056,5.955518 
	C141.866043,5.891202 144.388809,7.049818 145.865875,11.023329 
	C145.555618,18.042618 149.409134,20.750099 154.773010,22.176146 
z"/>
<path fill="#298E1C" opacity="1.000000" stroke="none" 
	d="
M155.152740,22.021414 
	C149.409134,20.750099 145.555618,18.042618 146.020676,11.353344 
	C152.773590,10.970566 159.434113,11.056569 166.092529,10.973651 
	C170.542175,10.918240 173.393677,12.578130 174.040268,17.272530 
	C174.654282,21.730433 176.782684,24.987638 181.852936,26.092384 
	C180.264175,30.155581 176.796082,30.569742 172.531372,30.132626 
	C170.183350,28.150974 168.295181,26.094301 166.320847,24.123974 
	C163.233810,21.043179 159.683456,19.965826 155.152740,22.021414 
z"/>
<path fill="#0403FA" opacity="1.000000" stroke="none" 
	d="
M59.040581,179.318573 
	C63.786873,180.755692 68.652885,182.513962 73.739944,184.535919 
	C67.101318,188.604523 63.216244,183.877045 59.040581,179.318573 
z"/>
<path fill="#298F1B" opacity="1.000000" stroke="none" 
	d="
M200.815674,34.955898 
	C200.313248,35.146667 199.698883,35.000320 198.894379,34.511272 
	C199.370743,34.318642 200.037231,34.468712 200.815674,34.955898 
z"/>
<path fill="#0403FA" opacity="1.000000" stroke="none" 
	d="
M58.054028,178.346710 
	C58.360371,178.219879 58.738144,178.343231 59.065887,178.773422 
	C58.719063,178.919159 58.422264,178.758041 58.054028,178.346710 
z"/>
<path fill="#B8CDD8" opacity="1.000000" stroke="none" 
	d="
M101.001907,163.054657 
	C65.306602,163.172607 37.361736,132.988510 39.238632,97.791161 
	C40.953724,65.628105 67.192245,40.622410 100.628220,39.691162 
	C101.091438,39.736477 101.034637,39.853981 101.025040,40.387726 
	C100.991325,46.912392 100.967216,52.903313 100.950760,58.953278 
	C100.958420,59.012321 101.046753,59.092171 100.623268,59.060654 
	C72.087982,60.934681 53.793228,84.840439 60.024929,111.457573 
	C63.799099,127.577995 79.347084,143.503052 100.822205,143.585693 
	C100.876724,143.718155 101.026054,143.962631 101.023926,144.433167 
	C100.994019,150.901154 100.966232,156.898590 100.938454,162.896027 
	C100.938454,162.896027 100.956467,163.015137 101.001907,163.054657 
z"/>
<path fill="#95A7AF" opacity="1.000000" stroke="none" 
	d="
M100.943108,58.894234 
	C100.967216,52.903313 100.991325,46.912392 101.014824,40.452179 
	C127.999359,38.215542 161.915421,61.012093 162.768982,100.929230 
	C163.483047,134.322952 136.018066,162.096680 101.385803,162.931946 
	C100.966232,156.898590 100.994019,150.901154 101.417191,144.345047 
	C114.136581,142.989471 124.870979,138.603455 132.903397,129.020111 
	C144.056885,115.713058 146.565674,100.538681 139.763855,84.691696 
	C132.597122,67.994545 119.043327,59.733055 100.943108,58.894234 
z"/>
<path fill="#364A57" opacity="1.000000" stroke="none" 
	d="
M100.950760,58.953278 
	C119.043327,59.733055 132.597122,67.994545 139.763855,84.691696 
	C146.565674,100.538681 144.056885,115.713058 132.903397,129.020111 
	C124.870979,138.603455 114.136581,142.989471 101.419319,143.874512 
	C101.026054,143.962631 100.876724,143.718155 100.869370,143.087296 
	C100.923599,114.668350 100.985176,86.880257 101.046753,59.092171 
	C101.046753,59.092171 100.958420,59.012321 100.950760,58.953278 
z"/>
<path fill="#486272" opacity="1.000000" stroke="none" 
	d="
M100.623268,59.060654 
	C100.985176,86.880257 100.923599,114.668350 100.814857,142.954834 
	C79.347084,143.503052 63.799099,127.577995 60.024929,111.457573 
	C53.793228,84.840439 72.087982,60.934681 100.623268,59.060654 
z"/>
</svg>